<?xml version="1.0" encoding="utf-8"?>
<!-- Generator: Adobe Illustrator 23.1.1, SVG Export Plug-In . SVG Version: 6.00 Build 0)  -->
<svg version="1.1" id="Ebene_1" xmlns="http://www.w3.org/2000/svg" xmlns:xlink="http://www.w3.org/1999/xlink" x="0px" y="0px"
	 viewBox="0 0 19.4 18.6" style="enable-background:new 0 0 19.4 18.6;" xml:space="preserve">
<style type="text/css">
	.st0{fill:none;}
</style>
<path class="st0" d="M-2.5,0h24v24h-24V0z"/>
<path d="M3.5,1c-1.1,0-2,0.9-2,2s0.9,2,2,2s2-0.9,2-2S4.6,1,3.5,1z M3.5,7c-1.1,0-2,0.9-2,2s0.9,2,2,2s2-0.9,2-2S4.6,7,3.5,7z
	 M3.5,13c-1.1,0-2,0.9-2,2s0.9,2,2,2s2-0.9,2-2S4.6,13,3.5,13z M15.5,5c1.1,0,2-0.9,2-2s-0.9-2-2-2s-2,0.9-2,2S14.4,5,15.5,5z
	 M9.5,13c-1.1,0-2,0.9-2,2s0.9,2,2,2s2-0.9,2-2S10.6,13,9.5,13z M15.5,13c-1.1,0-2,0.9-2,2s0.9,2,2,2s2-0.9,2-2S16.6,13,15.5,13z
	 M15.5,7c-1.1,0-2,0.9-2,2s0.9,2,2,2s2-0.9,2-2S16.6,7,15.5,7z M9.5,7c-1.1,0-2,0.9-2,2s0.9,2,2,2s2-0.9,2-2S10.6,7,9.5,7z M9.5,1
	c-1.1,0-2,0.9-2,2s0.9,2,2,2s2-0.9,2-2S10.6,1,9.5,1z"/>
</svg>
